<?xml version="1.0" encoding="UTF-8"?>
<svg id="Layer_1" xmlns="http://www.w3.org/2000/svg" version="1.1" viewBox="0 0 1000 1000">
  <!-- Generator: Adobe Illustrator 29.0.0, SVG Export Plug-In . SVG Version: 2.1.0 Build 186)  -->
  <defs>
    <style>
      .st0 {
        fill: #8071ff;
      }
    </style>
  </defs>
  <path class="st0" d="M294.81,584.58h-23.18v-78.73l-50.96-35.81-2.07-1.15v115.68h-23.18v-129.91l-17.21-10.56,17.21-19.74,76.2,53.25v-53.25h23.18v160.21Z"/>
  <path class="st0" d="M306.28,503.56l64.96-78.27,64.96,78.27-36.49,46.37-28.46,36.04-28.46-36.04-36.49-46.37ZM394.65,489.79l-16.76-20.2-6.66-8.26-35.35,42.23,3.67,4.59,28.69,36.95,2.75,3.44,35.35-44.76-2.52-2.98-9.18-11.02Z"/>
  <path class="st0" d="M521.35,424.6l13.31,18.13-61.74,37.64,19.74,24.79-21.58,26.85,63.58,34.43-13.31,19.05-85.61-48.2,4.59-5.51,22.49-26.85-9.87-11.94h-.23l-16.98-20.2,85.61-48.2Z"/>
  <path class="st0" d="M578.27,476.93v107.19h-23.18v-128.54l-16.53-11.48,16.53-19.74,66.1,45.91,67.25-45.91,16.75,19.74-16.75,11.48v128.54h-24.33v-114.99l-30.76,21.12v94.34h-23.18v-93.88l-31.9-22.26v8.49Z"/>
  <path class="st0" d="M782.09,468.44l41.77,108.34-21.58,8.49-17.67-46.13-43.84,8.26-14.46,37.87-23.18-5.74,49.58-123.71-9.41-24.56,21.81-6.66,16.98,43.84ZM750.42,521.92l25.71-4.82-11.94-30.99-13.77,35.81Z"/>
</svg>